<svg width="3060" height="3060" viewBox="0 0 3060 3060" fill="none" xmlns="http://www.w3.org/2000/svg">
<g clip-path="url(#clip0_488_7)">
<path d="M1533.04 3060C1513.84 3060 1494.99 3058.84 1479.96 3056.74L1463.84 3054.14L1453.17 3039.74L1452.35 3038.37C1416.32 2976.93 1393.24 2899.05 1387.63 2821.31C1382.66 2820.65 1377.03 2819.89 1370.75 2819.03C1360.3 2817.62 1347.19 2815.84 1336.02 2814.37C1311.35 2887.57 1269.2 2956.82 1218.15 3007.29L1204.33 3020.36L1185.63 3017.65C1155.4 3013.19 1114.9 3001.84 1084.78 2989.37L1083.91 2989.01L1069.55 2981.99L1063.58 2966.75L1063.23 2965.57C1051.58 2926.63 1045.41 2882.96 1045.41 2839.27C1045.41 2806.59 1049.02 2772.94 1056.17 2738.95C1051.77 2737.14 1022.05 2724.97 1014.27 2721.76C970.177 2787.87 911.055 2844.24 849.182 2878.66L835.258 2886.47L817.213 2881.59L815.088 2880.65C785.613 2867.48 748.465 2845.88 724.741 2828.14L723.003 2826.85L710.042 2813.82V2793.87C710.042 2723.75 728.628 2647.75 762.705 2577.36C748.906 2566.86 735.098 2556.37 721.282 2545.89C662.886 2596.7 591.798 2635.23 522.77 2653.07L506.368 2658.11L489.491 2647.07L488.324 2646.13C464.636 2627 434.756 2596.82 415.658 2572.74L414.569 2571.38L404.276 2554.7L408.997 2538.58C427.225 2469.58 466.071 2398.71 517.037 2340.66C513.578 2336.13 491.878 2307.84 485.853 2299.95C417.807 2333.69 342.129 2352.76 274.631 2352.76C271.708 2352.76 268.797 2352.72 265.886 2352.65H250.27L237.369 2340.12L236.006 2338.31C218.224 2314.79 196.107 2276.39 183.421 2247.02L176.509 2230.59L184.349 2214.12L184.903 2213.15C220.123 2151.52 276.072 2093.02 340.683 2049.72C334.396 2034.89 328.054 2020.08 321.656 2005.3C287.268 2012.16 252.289 2015.61 217.223 2015.62C173.663 2015.62 132.318 2010.24 94.3476 1999.61L79.7264 1994.97L70.2547 1980.37L69.1712 1977.69C58.7767 1951.84 47.3107 1908.61 42.5064 1877.12L39.6608 1860.37L51.1565 1845.22L52.4901 1843.86C102.766 1792.65 170.8 1750.95 246.073 1724.86C244.549 1713.58 242.709 1700.31 241.239 1689.75L238.905 1673C158.851 1668.15 82.1315 1645.83 20.5329 1609.18L19.4315 1608.5L3.88152 1598.31L2.54799 1580.06C0.898927 1567.27 0.125 1550.84 0.125 1528.52C0.125 1507.04 0.892974 1490.64 2.53608 1477L4.00059 1456.97L21.1639 1447.76C83.4531 1411.15 159.935 1388.8 238.953 1383.83C240.888 1368.87 243.293 1350.01 245.198 1335.01C171.407 1309.81 101.867 1267.53 51.4721 1216.77L50.5374 1215.83L38.6904 1201.56L41.7146 1184.7C45.3461 1153.95 56.6991 1112.22 69.0164 1084.28L74.678 1067.16L93.657 1061.73C131.341 1050.61 173.116 1044.94 217.592 1044.94C251.961 1044.94 286.472 1048.31 320.501 1054.99C325.043 1044.19 331.122 1029.6 338.736 1011.28C272.881 966.974 216.646 908.102 182.278 846.914L181.682 845.855L173.455 827.917L181.206 811.843C193.291 784.536 214.794 747.363 232.488 723.247L244.555 707.744H263.534C264.897 707.72 266.719 707.709 268.517 707.709C338.468 707.709 413.807 726.39 483.186 760.651C493.158 747.375 505.976 730.158 514.739 718.371C462.6 658.6 424.683 588.435 407.026 518.436L403.573 505.178L411.092 489.027L413.319 486.235C432.232 462.552 463.624 431.411 487.967 412.188L489.384 411.068L504.41 401.912L519.835 405.014L520.585 405.204C589.518 422.82 660.904 461.796 719.847 513.53C730.7 505.142 743.845 495.004 754.698 486.651C720.55 418.814 701.255 342.105 701.255 272.506V246.317L716.871 235.238C739.678 217.527 776.933 195.988 805.116 184.153L819.023 175.146L839.431 184.129L840.735 184.855C901.952 219.456 960.67 275.375 1004.68 340.498C1015 336.099 1048.84 321.59 1053.92 319.418C1046.48 283.519 1042.97 249.425 1043.45 217.777C1043.45 173.842 1048.98 132.407 1059.89 95.0025L1062.44 72.8742L1084.05 67.1709C1110.03 56.6098 1151.63 45.3343 1181.99 40.6728L1200.49 38.3153L1214.5 50.4422L1215.12 51.0494C1266.02 100.563 1308.56 170.246 1334.04 245.055C1349.59 243.132 1369.44 240.602 1384.83 238.572C1390.32 160.739 1413.46 83.3222 1449.71 22.6403L1456.63 8.25125L1475.89 3.00046L1478.09 2.73851C1492.88 0.964432 1511.51 0 1530.54 0C1549.6 0 1568.03 0.964432 1582.41 2.7147L1585.02 3.03022L1601.2 7.98335L1609.76 20.7115L1610.13 21.3247C1647.71 83.3519 1670.87 161.185 1675.11 238.292C1690.13 240.411 1709.6 243.013 1725.01 244.99C1750.94 169.675 1792.61 101.837 1843.87 51.9126L1858.49 36.1841L1877.31 41.923C1908.41 45.7569 1948.83 56.6753 1977.03 68.9152L1993.28 75.19L1998.72 93.7345C2010.29 131.83 2016.2 173.806 2016.2 218.224C2015.66 251.711 2011.83 285.776 2004.76 320.055C2019.58 326.228 2038.46 334.122 2053.48 340.409C2096.94 275.03 2154.18 220.349 2216.75 184.873L2217.84 184.278L2234.33 175.824L2251.05 183.337C2279.7 195.559 2316.74 217.176 2340.03 235.202L2355.99 245.168V271.773C2355.99 341.224 2336.78 418.254 2302.78 486.746L2342.62 517.87C2400.83 466.797 2470.84 428.506 2538.54 411.074L2558.51 400.079L2575.92 418.319C2600.82 437.322 2630.51 468.94 2647.02 490.426L2661.76 505.743L2654.69 525.556C2637.14 593.578 2598.2 664.535 2546.39 723.699C2555.57 735.832 2567.2 751.126 2576.41 763.157C2646.49 729.408 2721.7 711.001 2790.64 711.001C2792.95 711.001 2795.23 711.019 2797.52 711.066L2815.5 711.06L2826.54 726.146C2845.43 750.328 2867.15 787.387 2878.7 815.04L2888.71 834.412L2876.91 851.724C2841.53 913.002 2786.79 969.963 2721.19 1014.18C2727.21 1028.93 2733.31 1043.65 2739.49 1058.34C2773.63 1051.49 2808.37 1048.04 2843.19 1048.05C2886.32 1048.05 2927.09 1053.34 2964.39 1063.76L2983.42 1067.54L2991.02 1086.72C3001.19 1112.06 3013.72 1154.87 3018.02 1187.78L3021.1 1205.97L3007.35 1219.72C2958.34 1270.54 2888.91 1313.05 2814.25 1338.29L2815.4 1347.16C2817.03 1359.58 2818.97 1374.38 2820.6 1386.65C2899.78 1392.04 2976.13 1414.63 3037.92 1451.24L3054.55 1461.04L3056.85 1479.41C3058.83 1493.77 3059.85 1511.55 3059.85 1531.91C3059.85 1545.98 3059.32 1566.61 3056.81 1585.01L3054.37 1604.22L3037.08 1612.97C2976.18 1648.99 2899.92 1671.46 2819.96 1677.22C2818.35 1689.71 2816.48 1704.68 2815.1 1715.71C2814.77 1718.37 2814.45 1720.98 2814.13 1723.47C2888.69 1749 2957.85 1791.34 3006.72 1841.86L3008.79 1843.99L3017.22 1857.16V1871.35L3016.93 1873.39C3012.34 1906.44 3001.03 1947.63 2989.23 1974.38L2982.84 1994.2L2962.81 1997.47C2925.16 2008.11 2884.21 2013.5 2841.04 2013.5C2806.71 2013.5 2772.23 2010.11 2738.22 2003.39C2733.53 2014.79 2726.22 2032.53 2720.63 2046.47C2787.45 2092.75 2842.98 2152.01 2875 2211.69L2882.48 2226.67L2877.44 2243.23L2876.84 2244.66C2866.04 2270.28 2845.38 2308.9 2824.99 2334.52L2815.52 2350.69H2793.9L2789.79 2350.71C2719.08 2350.71 2643.5 2332.08 2574.35 2297.9L2543.57 2338.55C2595.48 2397.76 2633.96 2469.17 2650.59 2537.93L2656.07 2556.12L2644.32 2570.45C2625.88 2595.29 2593.76 2626.46 2571.21 2644.74L2557.95 2656.03L2537.46 2652.02L2536.49 2651.76C2467.48 2633.36 2396.47 2594.48 2338.25 2543.68L2300.74 2572.81C2335.12 2643.13 2353.88 2718.35 2353.88 2787.05V2814.53L2336.39 2824.39C2312.54 2843.16 2275.2 2864.91 2246.48 2876.65L2233.92 2881.98L2215.98 2876.08L2213.28 2874.5C2151.37 2838.44 2092.9 2782.51 2049.89 2718.73C2034.44 2725.36 2018.99 2732 2003.54 2738.64C2010.55 2771.88 2014.58 2805.68 2015.58 2839.63L2015.59 2840.49C2015.59 2879.13 2009.72 2920.63 1998.14 2963.86L1995.85 2980.54L1977.34 2990.59L1975.94 2991.18C1948.68 3002.53 1905.03 3013.14 1876.01 3018.2L1853.7 3021.3L1842 3006.53C1790.44 2956.93 1749.01 2889.48 1723.68 2814.42C1709.66 2816.25 1692.05 2818.64 1678.08 2820.64C1672.87 2899.15 1649.42 2977.46 1612.3 3038.76L1602.47 3054.45L1584.48 3056.79C1570.42 3058.84 1552.21 3060 1533.04 3060Z" fill="white"/>
<path d="M1493.63 22.5413C1477.64 23.8486 1478.14 23.5469 1473.41 31.6923C1446.97 76.1397 1426.95 134.565 1418.21 192.387C1415.49 210.287 1413.08 235.829 1413.08 246.589C1413.08 251.315 1412.68 255.74 1412.27 256.343C1411.87 257.047 1401.31 258.958 1388.44 260.667C1347.31 266.198 1316.14 269.919 1313.82 269.617C1311.71 269.315 1310.71 267.002 1304.57 248.701C1281.34 179.817 1244.34 117.47 1199.99 72.419C1191.14 63.4692 1188.83 61.6591 1186.31 61.6591C1181.09 61.6591 1150.21 68.3966 1132.72 73.3241C1119.84 76.9442 1089.17 87.1008 1087.56 88.3075C1086.96 88.7097 1080.83 113.548 1078.61 124.509C1072.08 156.387 1069.06 200.834 1070.97 234.823C1072.68 264.388 1076.1 288.824 1082.94 318.288C1084.35 324.824 1085.35 330.255 1085.15 330.456C1083.64 331.562 991.53 370.378 990.525 370.378C989.821 370.378 987.005 366.657 984.29 362.132C976.949 350.065 960.055 326.836 948.088 312.254C917.92 275.55 882.423 242.768 848.031 219.639C837.573 212.6 822.087 203.147 819.372 202.141C817.964 201.639 811.327 204.454 796.243 211.896C773.013 223.259 753.807 234.622 737.114 246.488L726.253 254.231V265.796C726.253 333.573 746.767 410.703 782.969 478.681L788.399 488.938L780.153 495.273C775.729 498.693 759.337 511.263 743.851 523.229C728.365 535.196 715.091 545.352 714.387 545.755C713.583 546.257 709.158 542.838 701.918 536.302C647.515 486.826 582.855 449.619 519.602 431.217C508.742 428.099 504.016 427.094 502.809 427.798C492.15 433.53 442.071 482.804 430.808 498.491L428.495 501.81L432.015 514.279C441.568 548.067 455.546 580.951 474.451 613.834C493.457 647.018 510.451 670.047 543.536 707.757L547.357 712.181L516.887 752.908C500.094 775.333 486.116 793.735 485.613 793.735C485.211 793.735 475.959 789.311 464.998 783.88C423.367 763.165 378.215 747.88 334.874 739.936C311.242 735.712 297.164 734.204 273.733 733.701L251.107 733.198L245.074 741.846C229.688 763.97 199.319 818.473 199.319 824.104C199.319 827.926 217.118 856.082 231.197 874.384C264.884 918.329 313.354 962.073 361.422 991.738L369.064 996.464L360.517 1017.08C346.539 1050.67 331.757 1085.86 331.555 1086.16C331.354 1086.36 323.611 1084.96 314.259 1082.95C280.27 1075.91 256.739 1073.29 219.833 1072.59C174.28 1071.68 139.587 1075.4 101.977 1085.36L89.9099 1088.58L84.7813 1101.35C78.6472 1117.14 73.5186 1133.73 69.094 1152.23C65.3733 1168.22 61.9542 1189.94 62.8593 1192.15C63.6638 1194.37 85.2841 1213.87 98.7592 1224.63C143.307 1260.23 199.822 1290.2 255.934 1308.1L270.717 1312.83L270.214 1316.04C269.912 1317.75 267.197 1338.87 264.18 1362.9C261.163 1386.94 258.348 1407.85 258.046 1409.36L257.443 1412.18H248.292C228.582 1412.18 191.777 1416.4 165.229 1421.73C118.569 1431.08 65.9766 1450.49 30.3784 1471.31L23.842 1475.13L22.937 1483.17C21.8308 1493.63 21.6297 1556.48 22.7359 1570.36L23.5404 1581.32L29.2723 1584.94C38.4232 1590.77 66.9822 1604.65 82.1668 1610.58C120.279 1625.47 158.995 1635.32 200.325 1640.45C217.722 1642.66 240.649 1644.47 250.806 1644.47H257.543L258.147 1647.69C258.448 1649.5 261.365 1671.12 264.683 1695.76C268.002 1720.39 270.918 1741.91 271.219 1743.62L271.722 1746.64L262.471 1749.46C222.448 1761.42 172.57 1785.05 134.458 1810.09C111.229 1825.38 81.7646 1849.21 67.8873 1863.99C63.161 1869.02 62.6582 1869.93 63.161 1872.94C70.2002 1912.67 84.7813 1965.36 90.2116 1970.89C91.72 1972.4 96.4463 1974.01 105.396 1976.12C175.989 1992.91 251.811 1992.11 329.846 1973.81C332.561 1973.1 331.254 1970.39 354.885 2025.59C364.036 2047.11 370.975 2064.41 370.372 2064.61C367.757 2065.52 332.46 2089.65 322.505 2097.39C278.158 2132.09 237.934 2175.63 211.587 2217.66C201.431 2233.95 201.23 2234.36 203.04 2238.58C211.889 2260.4 239.342 2308.37 251.309 2322.95L254.728 2327.27H267.096C331.455 2327.27 404.864 2308.47 470.328 2275.08C479.781 2270.36 487.725 2266.44 488.027 2266.44C488.328 2266.44 502.507 2284.54 519.301 2306.56L550.072 2346.68L539.513 2358.35C492.351 2410.34 456.551 2471.78 436.238 2535.33C429.3 2556.95 429.3 2555.55 436.942 2565.1C450.819 2582.19 476.663 2608.34 495.468 2624.33C504.82 2632.27 503.613 2632.17 522.82 2626.34C582.05 2608.54 638.565 2577.47 689.951 2534.63C696.286 2529.3 704.432 2522.16 708.052 2518.74L714.689 2512.51L754.712 2542.98C776.734 2559.67 794.936 2573.65 795.237 2573.95C795.639 2574.25 792.019 2582.39 787.293 2591.95C755.415 2656.61 737.516 2724.59 735.605 2788.14L735.002 2807.95L737.415 2810.57C745.862 2819.62 815.45 2859.74 825.405 2861.45C829.729 2862.15 863.819 2840.03 886.043 2822.23C915.808 2798.2 947.183 2765.41 971.116 2733.03C979.966 2721.17 991.631 2703.87 996.256 2696.03C998.167 2692.61 999.575 2691.3 1000.68 2691.6C1003.09 2692.41 1087.36 2727.2 1087.77 2727.6C1087.87 2727.8 1086.56 2734.34 1084.75 2742.08C1070.87 2801.82 1068.76 2861.55 1078.72 2920.07C1081.73 2937.87 1089.37 2968.85 1090.68 2968.85C1090.78 2968.85 1096.92 2971.06 1104.16 2973.87C1126.68 2982.32 1154.64 2990.17 1178.17 2994.49L1192.25 2997L1197.18 2992.28C1205.32 2984.33 1223.22 2963.62 1232.87 2950.95C1268.27 2904.49 1294.52 2851.79 1313.12 2790.05C1313.32 2789.45 1314.33 2788.84 1315.33 2788.84C1317.95 2788.84 1414.28 2801.72 1414.69 2802.12C1414.79 2802.32 1415.49 2810.36 1416.09 2820.02C1419.61 2874.92 1431.38 2928.12 1450.49 2975.89C1456.12 2989.96 1470.3 3019.43 1475.93 3028.78C1480.25 3035.92 1478.64 3035.42 1502.88 3037.33C1519.57 3038.63 1561.91 3037.93 1575.58 3036.12L1584.83 3034.91L1589.66 3026.87C1617.11 2980.71 1638.23 2916.05 1645.87 2854.71C1647.78 2839.12 1649.39 2818.71 1649.39 2809.46C1649.39 2802.52 1649.49 2802.12 1651.81 2801.51C1658.34 2799.91 1744.72 2788.24 1745.23 2788.94C1745.43 2789.15 1748.34 2797.69 1751.66 2807.95C1766.75 2853.5 1789.57 2899.16 1815.72 2936.16C1833.82 2961.81 1865.4 2997 1870.22 2997C1873.24 2997 1898.98 2991.67 1914.37 2987.85C1938.1 2981.92 1968.27 2972.06 1969.68 2969.75C1971.39 2967.14 1978.53 2935.46 1981.74 2916.86C1990.59 2865.67 1989.49 2818.21 1978.12 2759.68C1976.41 2751.13 1974.2 2740.47 1973.1 2736.15C1971.99 2731.83 1971.39 2727.9 1971.89 2727.5C1972.79 2726.7 2060.38 2689.19 2062.8 2688.59C2063.9 2688.28 2065.01 2688.99 2065.81 2690.5C2069.03 2696.63 2083.41 2717.45 2093.97 2731.52C2129.47 2778.49 2177.84 2823.24 2222.79 2850.49C2232.04 2856.12 2234.65 2857.22 2237.07 2856.82C2238.67 2856.52 2246.02 2853.3 2253.46 2849.68C2275.98 2838.92 2295.39 2827.26 2316.41 2812.17L2328.17 2803.73V2792.46C2328.17 2728.71 2308.56 2652.99 2274.67 2585.71C2268.64 2573.65 2267.13 2569.93 2268.14 2569.02C2269.24 2567.91 2332.6 2518.84 2340.34 2513.01L2343.96 2510.29L2353.41 2518.94C2376.24 2539.86 2409.73 2564.6 2437.78 2581.19C2468.96 2599.59 2507.67 2616.79 2538.34 2625.74C2556.14 2630.86 2553.43 2631.37 2566.6 2620.21C2586.51 2603.11 2613.86 2574.85 2626.03 2558.56L2628.75 2555.04L2624.82 2540.96C2617.68 2515.22 2610.04 2495.21 2597.67 2469.57C2576.76 2426.63 2553.93 2393.54 2515.92 2351.11L2510.09 2344.57L2540.45 2304.45C2557.15 2282.42 2570.82 2264.32 2570.92 2264.22C2571.02 2264.12 2579.97 2268.45 2590.84 2273.88C2654.09 2305.35 2720.36 2322.65 2786.32 2324.96C2802.51 2325.46 2805.63 2325.36 2806.03 2324.16C2806.34 2323.35 2809.45 2318.93 2812.87 2314.3C2816.39 2309.78 2823.03 2299.82 2827.65 2292.28C2837.01 2277.2 2857.12 2237.57 2857.12 2234.46C2857.12 2231.44 2848.97 2216.96 2838.51 2201.07C2806.84 2153.51 2758.37 2106.34 2702.56 2068.94L2690.29 2060.69L2691.9 2056.47C2695.32 2047.72 2712.41 2005.38 2719.25 1988.89C2724.78 1975.41 2726.69 1971.79 2728.1 1971.9C2729.11 1972 2736.45 1973.4 2744.49 1975.11C2815.49 1990.1 2888.09 1989.59 2952.85 1973.6L2967.63 1969.98L2972.66 1957.21C2980.81 1936.5 2987.44 1913.47 2992.27 1888.03C2996.49 1866.41 2997 1868.22 2982.82 1854.44C2938.07 1810.9 2872.91 1772.89 2804.32 1750.46C2790.85 1746.04 2788.23 1744.93 2788.44 1743.32C2797.79 1669.01 2799.9 1652.72 2800.4 1651.31C2801.01 1649.4 2802.51 1649.2 2827.45 1647.49C2895.53 1642.96 2964.01 1623.56 3020.13 1593.09L3034.81 1585.14L3035.51 1580.01C3038.83 1554.97 3038.83 1508.62 3035.51 1483.48L3034.91 1478.65L3025.15 1473.12C2968.84 1441.44 2899.35 1421.03 2830.97 1416.2C2822.42 1415.6 2812.17 1414.89 2808.25 1414.59L2801.11 1414.09L2800.5 1409.36C2800.2 1406.75 2797.39 1385.63 2794.37 1362.5C2791.25 1339.37 2788.74 1319.36 2788.74 1318.05C2788.74 1316.14 2789.54 1315.54 2793.06 1314.54C2795.37 1313.93 2803.42 1311.42 2810.86 1308.9C2865.46 1290.6 2917.15 1262.65 2960.09 1227.85C2973.47 1216.99 2996.9 1195.17 2996.9 1193.56C2996.9 1189.34 2992.07 1164.9 2988.35 1150.22C2983.82 1132.42 2975.07 1104.57 2971.25 1095.92L2969.04 1090.79L2953.05 1087.07C2914.14 1077.92 2882.06 1074.7 2839.52 1075.6C2803.22 1076.41 2772.95 1080.03 2740.67 1087.37L2728.3 1090.09L2726.99 1086.97C2717.34 1064.84 2713.82 1056.5 2706.08 1037.59C2701.05 1025.43 2695.52 1011.85 2693.71 1007.53L2690.39 999.481L2700.14 993.347C2764.1 952.62 2820.51 895.904 2856.01 836.674L2861.24 827.926L2851.69 808.518C2840.73 786.294 2829.26 766.886 2816.39 748.785L2807.44 736.114L2785.72 736.718C2721.16 738.628 2651.67 757.132 2586.91 789.813L2573.64 796.45L2571.73 794.339C2570.12 792.529 2530.9 741.142 2517.33 723.142L2513 717.41L2521.95 707.555C2573.74 650.538 2611.55 584.37 2629.85 519.006L2633.17 507.24L2624.62 496.882C2613.76 483.81 2596.67 465.508 2585.61 455.15C2571.33 441.776 2557.75 430.815 2556.85 431.72C2556.34 432.222 2552.32 433.53 2547.9 434.636C2508.58 444.692 2460.01 467.217 2419.18 494.368C2397.06 509.05 2374.43 526.95 2356.73 543.643L2348.59 551.386L2315.5 525.542C2297.3 511.464 2279.4 497.385 2275.68 494.469L2268.94 489.039L2277.79 471.742C2311.08 405.976 2330.38 331.059 2330.08 268.008V254.231L2323.85 249.807C2302.23 234.22 2277.99 219.84 2254.76 208.678L2239.28 201.136L2233.85 203.951C2225.9 208.175 2202.98 223.359 2191.21 232.309C2151.19 262.578 2112.47 303.807 2083.21 347.35C2078.18 354.791 2072.85 363.037 2071.24 365.652C2069.03 369.574 2068.02 370.378 2066.31 369.976C2064.1 369.372 1973.2 331.562 1972.59 330.959C1972.39 330.757 1972.89 328.143 1973.7 325.126C1979.13 304.914 1985.26 265.896 1987.38 238.645C1988.78 219.438 1987.98 176.8 1985.77 159.202C1982.95 136.375 1974.6 97.2573 1971.18 90.922C1970.58 89.7153 1966.16 87.4024 1959.92 84.989C1936.89 76.1397 1911.65 69.2011 1885.71 64.6759L1869.12 61.7597L1859.26 72.0168C1812 121.392 1774.89 184.543 1751.46 255.438C1746.94 269.416 1746.74 269.818 1743.92 269.818C1739.09 269.818 1659.05 259.058 1649.19 257.148C1646.38 256.544 1646.38 256.444 1646.38 248.902C1646.38 238.142 1644.67 215.415 1642.76 200.432C1637.93 162.32 1627.87 122.8 1614 87.8047C1604.34 63.3686 1585.34 26.7648 1581.21 24.5525C1576.19 21.9379 1517.96 20.5301 1493.63 22.5413ZM1580.51 332.165C1749.85 340.411 1906.73 381.339 2058.67 456.96C2129.47 492.257 2191.71 530.671 2256.47 579.241C2284.23 600.057 2293.28 610.515 2295.99 624.694C2297.2 631.23 2295.29 640.281 2291.57 645.912C2289.05 649.734 2175.32 776.841 2164.16 788.305C2155.01 797.657 2148.97 800.976 2139.72 801.579C2126.35 802.383 2117.8 798.261 2090.45 777.746C1973.8 690.46 1840.36 632.136 1697.66 606.292C1577.19 584.47 1451.19 586.18 1333.84 611.32C1199.49 640.08 1077.41 695.488 969.105 777.042C938.334 800.272 927.976 804.897 914.501 801.378C906.959 799.467 902.333 796.551 895.495 789.612C892.68 786.596 862.914 753.612 829.327 716.304C761.751 640.985 762.052 641.286 762.052 628.918C762.052 615.945 769.494 604.582 787.494 590.202C881.518 515.084 996.256 450.323 1112.91 406.58C1227.75 363.54 1350.43 338.098 1472.41 332.266C1497.15 331.059 1556.48 331.059 1580.51 332.165ZM1705.71 688.147C1767.55 703.835 1827.28 724.248 1878.17 746.975C1897.47 755.724 1935.08 774.931 1954.59 786.093C2030.01 829.535 2104.53 888.865 2170.29 957.95C2184.07 972.33 2189 978.263 2191.41 983.09C2198.75 998.073 2193.93 1010.64 2177.13 1020.6C2169.39 1025.02 1743.01 1230.87 1735.87 1233.48C1731.65 1234.99 1727.73 1235.6 1719.79 1235.6C1710.23 1235.7 1708.62 1235.39 1703.19 1232.88C1692.13 1227.65 1684.19 1216.79 1681.07 1202.61C1679.46 1194.97 1646.18 734.204 1646.07 717.31C1645.97 698.907 1650.2 689.052 1660.45 683.823C1665.48 681.209 1666.69 681.008 1673.53 681.41C1677.95 681.712 1691.23 684.527 1705.71 688.147ZM1394.78 686.337C1398.09 687.142 1400.81 688.851 1404.03 692.069C1409.36 697.399 1411.97 704.74 1412.68 716.706C1412.98 720.93 1406.04 821.792 1395.58 964.184C1376.27 1227.85 1377.88 1211.86 1370.24 1223.33C1364.31 1232.28 1357.87 1236.8 1347.81 1239.22C1340.98 1240.82 1328.91 1240.02 1321.57 1237.41C1315.74 1235.29 891.071 1029.35 880.411 1023.41C868.244 1016.68 861.808 1006.02 863.417 995.559C865.126 984.799 873.071 974.743 904.345 944.072C1037.08 813.646 1167.51 739.735 1349.22 692.069C1375.67 685.131 1385.32 683.924 1394.78 686.337ZM2401.08 712.785C2407.82 715.902 2413.65 721.533 2435.87 746.17C2574.85 900.329 2670.58 1098.73 2709.19 1312.42C2735.54 1458.13 2734.84 1608.37 2707.28 1755.09C2698.84 1800.04 2695.72 1809.99 2687.77 1817.94C2681.24 1824.37 2675.1 1826.99 2666.05 1826.89C2659.22 1826.89 2649.56 1824.27 2566.1 1799.94C2515.31 1785.16 2471.87 1772.18 2469.56 1770.98C2463.02 1767.66 2459.1 1764.24 2454.78 1758.21C2450.25 1751.87 2446.83 1741.91 2446.83 1735.08C2446.83 1732.56 2449.05 1717.08 2451.76 1700.79C2458.8 1658.65 2462.92 1624.36 2466.14 1580.62C2467.85 1557.69 2467.85 1472.31 2466.14 1450.39C2454.78 1302.87 2416.97 1181.8 2344.87 1061.22C2316 1012.96 2268.54 949.402 2235.26 914.608C2224.19 903.044 2222.08 899.826 2219.97 891.781C2217.36 882.127 2218.96 870.965 2224.29 860.708C2226.31 856.887 2245.51 837.077 2297.5 784.685C2355.42 726.36 2368.8 713.388 2372.92 711.477C2380.16 708.159 2392.53 708.762 2401.08 712.785ZM690.152 713.086C693.37 714.595 714.588 735.209 764.566 785.389C841.495 862.518 839.282 859.904 841.897 875.088C844.31 888.563 840.087 900.429 828.925 911.39C820.88 919.234 801.673 941.558 786.086 961.067C677.984 1096.72 615.235 1249.67 598.14 1418.72C594.62 1453.41 594.017 1467.69 594.017 1515.76C594.117 1552.86 594.52 1569.96 595.827 1587.15C599.246 1629.99 604.374 1671.52 611.213 1709.63C615.134 1731.96 615.335 1737.39 612.721 1745.94C609.201 1757.4 600.252 1767.86 590.497 1771.98C588.587 1772.79 545.849 1785.46 495.468 1800.14C412.707 1824.27 403.255 1826.79 396.417 1826.79C386.763 1826.89 380.126 1824.07 373.891 1817.44C366.047 1808.99 364.438 1804.46 358.204 1773.79C330.65 1637.33 325.823 1503.19 343.723 1368.44C372.282 1152.13 459.769 947.693 593.413 784.685C619.458 752.908 647.515 722.639 655.962 717.31C667.023 710.17 680.699 708.461 690.152 713.086ZM2324.35 1217.6C2332.7 1223.13 2337.02 1231.77 2344.77 1258.72C2366.08 1332.74 2379.26 1407.55 2383.48 1478.25C2384.79 1500.57 2384.79 1553.16 2383.48 1575.39C2378.96 1650.41 2363.97 1733.47 2341.65 1807.18C2335.21 1828.3 2329.08 1837.04 2318.52 1840.16C2310.98 1842.37 2304.54 1841.07 2293.48 1835.13C2282.02 1829.1 1892.35 1563.92 1886.41 1558.19C1877.26 1549.24 1872.64 1539.09 1872.64 1527.82C1872.64 1516.36 1877.26 1506.4 1886.92 1496.95C1893.05 1490.92 2279 1228.15 2291.47 1221.52C2306.15 1213.67 2316.51 1212.37 2324.35 1217.6ZM760.544 1220.71C769.293 1224.84 759.438 1218.3 975.642 1365.42C1121.25 1464.57 1167.71 1496.65 1172.84 1501.68C1180.48 1509.22 1184.4 1516.56 1186.01 1525.91C1188.02 1538.28 1182.59 1551.45 1171.23 1561.71C1164.29 1567.95 778.645 1830.91 767.985 1836.64C745.963 1848.51 730.477 1844.69 722.03 1825.48C719.415 1819.35 709.158 1783.35 703.124 1758.61C664.409 1600.83 664.811 1458.13 704.23 1299.35C712.677 1265.26 718.711 1244.34 722.231 1236.9C730.879 1218.6 744.052 1213.07 760.544 1220.71ZM1549.44 1231.17C1602.43 1235.39 1649.59 1251.69 1693.84 1281.05C1757.09 1322.98 1802.65 1388.04 1819.94 1461.15C1831 1508.11 1830.8 1555.28 1819.24 1602.24C1810.69 1636.83 1795.71 1670.62 1776.4 1698.77C1752.57 1733.37 1717.98 1766.15 1683.38 1786.97C1607.76 1832.32 1518.16 1842.37 1434.7 1814.92C1370.94 1794 1316.44 1752.47 1278.93 1696.36C1236.7 1633.11 1220.4 1556.08 1233.18 1480.06C1249.47 1382.92 1315.53 1297.44 1406.04 1256.71C1450.99 1236.5 1502.07 1227.45 1549.44 1231.17ZM1737.38 1819.95C1744.72 1822.46 2168.68 2028.21 2176.03 2032.83C2185.08 2038.57 2193.02 2047.52 2195.03 2054.35C2196.84 2060.89 2196.34 2064.11 2192.22 2072.05C2185.18 2085.33 2134.59 2135.41 2090.85 2172.31C2023.07 2229.63 1952.38 2274.38 1875.15 2308.67C1825.57 2330.69 1765.84 2351.01 1706.51 2366.09C1680.77 2372.53 1670.01 2373.53 1661.26 2370.21C1655.73 2368.1 1650.4 2362.37 1648.49 2356.74C1645.17 2346.68 1645.67 2338.13 1663.27 2095.99C1672.72 1966.36 1681.07 1857.66 1681.97 1853.23C1686.5 1829.9 1701.89 1816.73 1723.81 1817.84C1728.53 1818.04 1734.67 1819.04 1737.38 1819.95ZM1358.98 1825.48C1373.16 1830.81 1382.21 1843.38 1384.92 1861.48C1385.52 1865.2 1393.67 1973.6 1403.12 2102.52C1415.49 2271.56 1420.12 2339.64 1419.81 2346.88C1419.21 2359.05 1416.5 2367 1411.37 2372.02C1407.45 2375.84 1400.11 2378.56 1393.87 2378.56C1389.65 2378.56 1341.68 2366.79 1318.55 2360.06C1174.25 2318.22 1064.44 2257.59 953.518 2158.74C934.01 2141.44 888.456 2096.29 881.015 2087.14C873.473 2077.78 871.059 2072.96 870.355 2066.22C869.35 2056.77 873.774 2049.13 884.434 2041.78C889.261 2038.57 1310.41 1833.12 1323.18 1827.89C1336.75 1822.26 1348.42 1821.46 1358.98 1825.48ZM640.274 1861.58C647.414 1865.1 656.163 1874.35 658.677 1880.99C670.945 1913.87 697.091 1967.17 719.918 2006.39C782.064 2112.68 867.238 2208.01 966.088 2282.02C1106.87 2387.51 1270.08 2450.46 1443.75 2466.55C1476.03 2469.47 1502.37 2470.37 1542.7 2469.77C1583.63 2469.16 1595.9 2468.46 1628.78 2464.94C1798.42 2446.84 1954.49 2385.1 2092.36 2281.52C2147.87 2239.79 2203.08 2187.29 2248.53 2132.99C2304.44 2066.02 2354.92 1984.97 2388.41 1907.94C2399.97 1881.49 2403.09 1875.56 2408.62 1869.93C2415.56 1862.89 2423.1 1859.37 2432.35 1858.87C2439.49 1858.46 2439.49 1858.46 2531.4 1889.84C2581.99 1907.13 2625.43 1922.32 2628.04 1923.63C2641.72 1930.57 2648.46 1943.34 2645.84 1957.52C2642.62 1975.31 2602.9 2061.9 2575.55 2110.87C2529.69 2192.93 2475.19 2268.55 2411.24 2338.84C2393.23 2358.55 2347.08 2404.2 2326.66 2422.3C2212.43 2524.07 2085.42 2601.1 1945.54 2653.59C1758.8 2723.58 1556.98 2745.4 1358.27 2716.94C1025.22 2669.28 726.756 2481.63 537.703 2201.17C491.043 2131.89 450.819 2056.37 419.948 1979.84L413.009 1962.74V1952.69C413.009 1944.34 413.411 1941.93 415.221 1938.61C417.936 1933.38 426.283 1925.64 431.814 1923.02C434.227 1921.92 476.864 1906.93 526.642 1889.84L617.146 1858.66L626.196 1858.97C633.436 1859.17 636.252 1859.67 640.274 1861.58Z" fill="#17458f"/>
<path d="M1496.54 1261.74C1374.66 1277.33 1278.93 1370.85 1261.23 1491.62C1253.39 1545.12 1261.63 1598.31 1285.27 1646.99C1299.85 1677.15 1314.73 1698.17 1338.06 1721.5C1361.19 1744.53 1382.51 1759.71 1411.57 1773.79C1430.47 1782.94 1442.54 1787.37 1461.75 1792.29C1488.8 1799.23 1513.24 1801.55 1543.4 1800.14C1662.47 1794.71 1765.44 1707.42 1791.58 1589.97C1799.53 1554.27 1800.23 1516.76 1793.7 1480.96C1775.7 1383.72 1705.2 1303.37 1611.28 1273C1597.91 1268.68 1587.05 1266.06 1570.55 1263.25C1554.87 1260.53 1512.73 1259.73 1496.54 1261.74ZM1572.97 1315.94C1572.97 1319.96 1574.98 1350.13 1575.58 1354.46L1576.09 1358.58L1587.75 1362.4C1632.7 1376.78 1672.32 1411.17 1693.24 1453.91C1716.97 1502.58 1717.47 1558.09 1694.54 1607.06C1679.96 1638.34 1658.54 1662.97 1629.78 1681.98C1596.9 1703.6 1555.97 1714.26 1518.46 1710.94C1494.33 1708.83 1475.12 1703.5 1453.5 1692.64C1417.8 1674.94 1390.55 1647.79 1372.35 1611.79C1347.81 1563.52 1347.01 1505.5 1370.14 1456.32C1389.75 1414.39 1426.45 1380.9 1469.89 1365.42L1478.94 1362.1L1479.55 1355.26C1479.95 1351.44 1480.55 1340.48 1480.96 1330.93L1481.76 1313.63H1527.31H1572.97V1315.94Z" fill="#17458f"/>
</g>
<defs>
<clipPath id="clip0_488_7">
<rect width="3060" height="3060" fill="white"/>
</clipPath>
</defs>
</svg>
